HIERARCHY
ROOT Hips
{
	OFFSET 0.000000 0.000000 0.000000
	CHANNELS 6 Xposition Yposition Zposition Zrotation Yrotation Xrotation
	JOINT LHipJoint
	{
		OFFSET 0.000000 0.000000 0.000000
		CHANNELS 3 Zrotation Yrotation Xrotation
		JOINT LeftUpLeg
		{
			OFFSET 0.087466 -0.002492 -0.126197
			CHANNELS 3 Zrotation Yrotation Xrotation
			JOINT LeftLeg
			{
				OFFSET 0.181804 0.000000 -0.458261
				CHANNELS 3 Zrotation Yrotation Xrotation
				JOINT LeftFoot
				{
					OFFSET 0.174465 0.000000 -0.443046
					CHANNELS 3 Zrotation Yrotation Xrotation
					End Site
					{
						OFFSET 0.000000 -0.077874 0.000000
					}
				}
			}
		}
	}
	JOINT RHipJoint
	{
		OFFSET 0.000000 0.000000 0.000000
		CHANNELS 3 Zrotation Yrotation Xrotation
		JOINT RightUpLeg
		{
			OFFSET -0.087466 -0.002492 -0.126197
			CHANNELS 3 Zrotation Yrotation Xrotation
			JOINT RightLeg
			{
				OFFSET -0.181804 0.000000 -0.458261
				CHANNELS 3 Zrotation Yrotation Xrotation
				JOINT RightFoot
				{
					OFFSET -0.174465 0.000000 -0.443046
					CHANNELS 3 Zrotation Yrotation Xrotation
					End Site
					{
						OFFSET 0.000000 -0.077874 0.000000
					}
				}
			}
		}
	}
	JOINT LowerBack
	{
		OFFSET 0.000000 0.000000 0.000000
		CHANNELS 3 Zrotation Yrotation Xrotation
		JOINT Spine
		{
			OFFSET 0.001373 0.009878 0.143815
			CHANNELS 3 Zrotation Yrotation Xrotation
			JOINT Spine1
			{
				OFFSET 0.000715 0.004145 0.144505
				CHANNELS 3 Zrotation Yrotation Xrotation
				JOINT Neck
				{
					OFFSET 0.000000 0.000000 0.000000
					CHANNELS 3 Zrotation Yrotation Xrotation
					JOINT Neck1
					{
						OFFSET 0.000499 0.022533 0.109698
						CHANNELS 3 Zrotation Yrotation Xrotation
						JOINT Head
						{
							OFFSET 0.002400 -0.026006 0.089973
							CHANNELS 3 Zrotation Yrotation Xrotation
							End Site
							{
								OFFSET 0.000913 -0.010860 0.101413
							}
						}
					}
				}
				JOINT LeftShoulder
				{
					OFFSET 0.000000 0.000000 0.000000
					CHANNELS 3 Zrotation Yrotation Xrotation
					JOINT LeftArm
					{
						OFFSET 0.205054 0.012933 0.062698
						CHANNELS 3 Zrotation Yrotation Xrotation
						JOINT LeftForeArm
						{
							OFFSET 0.235057 0.000000 0.000000
							CHANNELS 3 Zrotation Yrotation Xrotation
							JOINT LeftHand
							{
								OFFSET 0.277002 0.000000 0.035488
								CHANNELS 3 Zrotation Yrotation Xrotation
								End Site
								{
									OFFSET 0.072895 0.000000 0.000000
								}
							}
						}
					}
				}
				JOINT RightShoulder
				{
					OFFSET 0.000000 0.000000 0.000000
					CHANNELS 3 Zrotation Yrotation Xrotation
					JOINT RightArm
					{
						OFFSET -0.209229 0.012933 0.062698
						CHANNELS 3 Zrotation Yrotation Xrotation
						JOINT RightForeArm
						{
							OFFSET -0.235057 0.000000 0.000000
							CHANNELS 3 Zrotation Yrotation Xrotation
							JOINT RightHand
							{
								OFFSET -0.265196 0.000000 0.022180
								CHANNELS 3 Zrotation Yrotation Xrotation
								End Site
								{
									OFFSET -0.072895 0.000000 0.000000
								}
							}
						}
					}
				}
			}
		}
	}
}
MOTION
Frames: 11
Frame Time: 0.041667
0.000000 0.000000 1.105040 0.000000 -0.000000 0.000000 -0.000003 0.000003 0.000003 -0.000002 -0.000000 0.000000 -0.000000 -0.000004 0.000001 0.000002 -0.000001 0.000000 -0.000003 -0.000001 0.000001 -0.000002 -0.000004 0.000002 0.000003 -0.000000 0.000001 0.000000 0.000001 -0.000000 0.000000 -0.000000 0.000001 0.000000 -0.000000 0.000001 -0.000000 -0.000000 0.000000 0.000000 -0.000000 0.000000 -0.000000 -0.000000 0.000001 0.000000 0.000000 -0.000001 -0.000001 0.000002 -0.000001 -0.000001 -0.000000 -0.000001 -0.000000 0.000000 -0.000001 0.000000 0.000001 0.000000 -0.000001 -0.000002 -0.000001 0.000000 0.000000 -0.000000 0.000000 -0.000000 0.000000 -0.000000 -0.000001 0.000000 
0.000000 0.000000 1.105040 0.000000 -0.000000 0.000000 -0.000003 0.000003 0.000003 -0.000002 -0.000000 0.000000 -0.000000 -0.000004 0.000001 0.000002 -0.000001 0.000000 -0.000003 -0.000001 0.000001 -0.000002 -0.000004 0.000002 0.000003 -0.000000 0.000001 0.000000 0.000001 -0.000000 0.000000 -0.000000 0.000001 0.000000 -0.000000 0.000001 -0.000000 -0.000000 0.000000 0.000000 -0.000000 0.000000 -0.000000 -0.000000 0.000001 0.000000 0.000000 -0.000001 -0.000001 0.000002 -0.000001 -0.000001 -0.000000 -0.000001 -0.000000 0.000000 -0.000001 0.000000 0.000001 0.000000 -0.000001 -0.000002 -0.000001 0.000000 0.000000 -0.000000 0.000000 -0.000000 0.000000 -0.000000 -0.000001 0.000000 
-0.006678 -0.338478 1.137192 -2.629669 1.554963 4.144992 -0.000003 0.000005 -0.000004 0.828617 18.215928 -10.453775 22.951912 -20.018581 82.005136 12.618187 0.381260 2.060946 -0.000002 -0.000005 0.000003 19.256221 -26.194872 -30.692247 -15.523191 6.117489 42.814587 -1.567806 1.598505 -24.552546 -1.737926 -0.923375 10.506416 -2.122881 -2.346390 2.738759 -1.058473 -2.190527 -3.011537 2.054360 3.610615 -11.404334 4.662551 0.567030 -10.937382 2.185655 -0.221659 -1.578345 -0.000002 0.000002 -0.000001 41.141921 69.049005 101.521200 -94.677767 -23.278024 38.909255 0.000006 0.000005 -30.596089 -0.000002 0.000001 -0.000001 -44.965290 -75.351002 86.060889 89.436915 25.972027 33.953342 -0.000006 -0.000002 -11.136302 
-0.004179 -0.715932 1.156666 -10.919314 3.343398 5.256888 -0.000009 0.000003 -0.000002 -11.512457 13.004573 -46.525527 23.185869 -23.616156 91.083264 11.035661 0.183926 -12.472515 -0.000004 -0.000008 0.000003 15.315668 -30.509700 -4.705274 -12.495297 3.753764 33.328164 0.562232 1.225845 -20.748469 1.507737 -5.498609 10.382396 2.608664 -0.818053 2.225232 1.246360 2.578789 -3.270311 1.932099 0.972133 -9.865479 2.954794 -0.157740 -13.526537 1.431678 -0.039114 -2.642721 -0.000002 0.000004 -0.000001 69.580633 45.294222 112.314715 -81.814171 -24.403520 32.378293 0.000005 0.000004 -29.259701 -0.000002 -0.000005 0.000002 -117.126256 -122.580080 167.297479 107.734343 23.516042 42.891238 0.000001 0.000001 -8.186293 
-0.012684 -1.165122 1.245944 -10.011223 4.071566 4.125893 0.000006 -0.000000 -0.000002 -15.049550 14.900520 -32.620075 11.887278 -3.368101 31.539826 4.378006 -0.951721 -20.606749 0.000000 0.000001 0.000003 4.976898 -27.661006 12.129037 -12.694177 3.885762 33.920116 -13.844219 -0.093309 8.537084 2.466731 -5.467660 7.377814 3.751292 -1.317274 1.009738 1.811875 2.062369 -2.800172 -0.242646 3.289540 -13.737102 0.497657 -2.960922 -6.096999 0.617257 -1.552217 0.336855 -0.000001 0.000002 0.000000 88.262969 44.891657 117.521860 -86.800974 -24.128973 34.933347 0.000005 0.000004 -30.236001 0.000000 -0.000003 -0.000001 -153.104387 -108.519029 205.318355 110.739162 22.852806 44.280192 -0.000005 -0.000001 -12.007901 
-0.027713 -1.562421 1.148588 -3.207754 -3.182415 -0.053136 0.000002 -0.000000 -0.000004 -14.082338 30.351694 -22.970037 15.572548 -6.163028 42.979505 -3.234025 -1.638294 -23.305932 -0.000005 0.000002 -0.000001 7.210930 -15.792719 -15.835413 -23.190236 23.162345 89.928941 -11.541806 -0.415323 -5.749589 0.187436 2.872686 13.191993 -0.222996 1.689588 3.195526 -0.092101 0.109200 -4.016373 -0.241289 2.815715 -10.332338 -0.155126 -4.798042 -14.588162 0.465552 -2.106152 -3.015207 -0.000002 0.000004 -0.000005 44.217866 79.246498 81.650445 -101.805226 -22.063084 42.400814 0.000010 0.000000 -27.418596 -0.000001 -0.000001 -0.000001 -57.386614 -66.816974 103.068975 83.693921 26.189877 31.052991 -0.000001 0.000007 -10.007798 
-0.041146 -2.002168 1.210971 -0.347472 -1.166879 2.172875 0.000002 0.000009 -0.000002 -2.573139 30.248306 9.399550 10.192120 -2.424981 26.702076 1.228299 -0.016699 -3.217551 -0.000003 -0.000003 -0.000002 25.260519 -14.435328 -46.744104 -22.806867 19.162593 79.852370 -5.641209 0.496587 -16.647350 -3.572934 2.436062 9.061735 -4.966717 -0.537273 1.065990 -2.423457 -2.527240 -3.729375 2.271600 2.666142 -12.802581 3.828955 -1.601883 -8.702587 2.006438 -0.808986 -0.652486 -0.000000 0.000003 -0.000001 -30.541795 72.116026 17.237796 -116.934136 -18.063308 49.263648 0.000001 0.000008 -27.016692 -0.000003 -0.000002 -0.000003 -71.125007 -45.404427 113.412757 72.579516 25.867893 25.438526 0.000002 0.000003 -9.704203 
-0.044387 -2.479506 1.268574 1.078634 -4.832549 0.881721 0.000002 0.000003 -0.000002 7.051612 28.017211 14.845177 15.937341 -6.508267 44.210616 13.367301 0.490152 0.364572 -0.000003 -0.000004 0.000001 20.708336 -14.019146 -29.765855 -11.369634 3.060220 30.041142 -2.816859 1.713835 -25.977313 -3.974928 3.179850 5.023055 -5.471812 0.366424 0.775399 -2.711870 -1.752736 -1.750193 2.688507 2.509241 -15.668281 5.308073 0.963556 -3.683748 2.264296 -0.017658 1.462519 -0.000001 0.000003 -0.000001 27.834044 74.785531 85.901534 -114.904436 -18.712639 48.398273 0.000004 0.000001 -29.304988 0.000000 -0.000000 -0.000003 -84.410387 -44.571516 119.024625 82.076655 26.203975 30.233979 -0.000006 0.000002 -12.336200 
-0.037863 -2.894836 1.161887 -7.965326 5.083145 -2.331784 0.000002 0.000009 -0.000002 6.238317 10.125502 -19.377762 22.994134 -26.005322 97.250747 7.574205 0.047075 -9.681234 -0.000005 -0.000000 -0.000002 23.220802 -30.953294 -22.713891 -15.867383 6.440861 43.972512 2.000421 1.915539 -25.575411 -0.206355 -7.034855 11.866475 0.690748 -2.839596 2.774578 0.287353 1.090287 -3.635132 2.927834 2.221302 -12.745322 5.575818 2.029539 -9.927834 2.389628 0.490601 -0.998520 0.000000 0.000007 -0.000005 68.043820 59.828298 118.811427 -95.313746 -23.186880 39.225636 0.000005 -0.000002 -28.950993 -0.000001 -0.000000 0.000000 -6.856790 -78.046468 54.258487 89.542393 25.965531 34.006481 -0.000002 -0.000003 -6.710809 
-0.026621 -3.347827 1.249940 -8.151800 0.801027 -1.029238 0.000001 0.000006 -0.000000 -15.524364 16.580110 -40.060463 22.112090 -16.430669 72.920384 7.390251 -0.631222 -19.616863 -0.000001 -0.000003 0.000008 8.361941 -27.624767 11.739826 -10.440390 2.551623 27.398891 -5.377107 -0.070386 0.809924 2.506000 -5.631045 8.199849 3.822541 0.263212 1.027586 1.830030 3.848942 -3.170516 -0.089443 1.862306 -12.558964 1.150080 0.688171 -5.991386 0.430423 -0.087746 0.189129 -0.000000 -0.000002 -0.000003 74.209958 42.279841 115.118891 -89.012740 -23.941860 36.058983 0.000007 0.000003 -30.033892 -0.000001 -0.000000 -0.000003 51.779760 -68.064959 -0.677358 112.092454 22.529891 44.895554 0.000006 0.000005 -7.249206 
-0.027692 -3.830428 1.287264 -7.943470 4.785756 -2.230873 -0.000001 -0.000002 -0.000004 -12.214850 15.563037 -24.859368 10.846544 -2.767068 28.546357 7.518274 -1.405029 -26.513601 -0.000000 -0.000001 -0.000000 3.643004 -29.897053 15.926425 -15.422232 6.024970 42.478797 -14.554117 -0.369644 5.103163 2.493262 -6.108258 4.699033 3.648101 -0.849776 0.574822 1.781877 2.765564 -1.720597 -0.440940 2.101688 -13.735386 -0.016699 -1.689133 -1.993328 0.198137 -0.956438 1.701239 -0.000002 0.000004 -0.000001 84.265915 46.552408 117.072024 -94.846384 -23.254139 38.993185 0.000003 0.000003 -28.929994 -0.000001 0.000003 -0.000003 0.747830 -76.712033 55.452038 109.498150 23.135707 43.710199 0.000001 0.000002 -10.621297 
